<svg width="27" height="29" viewBox="0 0 27 29" fill="none" xmlns="http://www.w3.org/2000/svg">
<path fill-rule="evenodd" clip-rule="evenodd" d="M9.88878 16.7528L4.48877 11.3528L6.61009 9.23145L12.0101 14.6314L9.88878 16.7528Z" fill="#1D1D1B"/>
<path fill-rule="evenodd" clip-rule="evenodd" d="M4.48877 14.6314L9.88878 9.23145L12.0101 11.3528L6.61009 16.7528L4.48877 14.6314Z" fill="#1D1D1B"/>
<path fill-rule="evenodd" clip-rule="evenodd" d="M20.3898 16.7523L14.9897 11.3523L17.1111 9.23096L22.5111 14.631L20.3898 16.7523Z" fill="#1D1D1B"/>
<path fill-rule="evenodd" clip-rule="evenodd" d="M14.9897 14.631L20.3898 9.23096L22.5111 11.3523L17.1111 16.7523L14.9897 14.631Z" fill="#1D1D1B"/>
<path fill-rule="evenodd" clip-rule="evenodd" d="M5.87887 2.22658C7.63259 1.09182 9.75094 0.242188 12 0.242188H15C19.5628 0.242188 23.3877 3.49019 25.3363 6.22207C26.4795 7.58885 27 9.42876 27 11.0422V22.7422H22.5V28.7422H4.5V22.7422H0V11.0422C0 9.35671 0.561624 7.70071 1.63684 6.25976C2.64494 4.83667 4.12842 3.35923 5.87887 2.22658ZM7.50862 4.74529C6.07871 5.67053 4.86713 6.88565 4.07544 8.00721L4.06297 8.02488L4.04999 8.04219C3.33378 8.99714 3 10.0345 3 11.0422V19.7422H7.5V25.7422H19.5V19.7422H24V11.0422C24 9.97778 23.6349 8.84612 23.0111 8.11837L22.9652 8.06483L22.9245 8.00721C21.2608 5.65032 18.2065 3.24219 15 3.24219H12C10.4991 3.24219 8.9424 3.81755 7.50862 4.74529Z" fill="#1D1D1B"/>
<path fill-rule="evenodd" clip-rule="evenodd" d="M9.75098 27.2427L9.75098 21.2427L11.251 21.2427L11.251 27.2427L9.75098 27.2427Z" fill="#1D1D1B"/>
<path fill-rule="evenodd" clip-rule="evenodd" d="M12.7515 27.2427V21.2427H14.2515V27.2427H12.7515Z" fill="#1D1D1B"/>
<path fill-rule="evenodd" clip-rule="evenodd" d="M15.752 27.2427V21.2427H17.252V27.2427H15.752Z" fill="#1D1D1B"/>
</svg>
