<svg width="66" height="65" viewBox="0 0 66 65" fill="none" xmlns="http://www.w3.org/2000/svg">
<g id="Product Icon / 01 B2C / 01 64 / Internet Security for Windows">
<g id="Group 18">
<path id="Fill 1" fill-rule="evenodd" clip-rule="evenodd" d="M33.4163 0.439453L5.41602 16.4396V48.4393L33.4163 64.4395L61.416 48.4393V16.4396L33.4163 0.439453Z" fill="#00A88E"/>
<path id="Fill 9 Copy" fill-rule="evenodd" clip-rule="evenodd" d="M38.416 38.4395C38.416 37.3347 36.1777 36.4395 33.416 36.4395C30.6544 36.4395 28.416 37.3347 28.416 38.4395C28.416 39.5442 30.6544 40.4395 33.416 40.4395C36.1777 40.4395 38.416 39.5442 38.416 38.4395Z" fill="#4D4D4F"/>
<path id="Fill 8 Copy 4" fill-rule="evenodd" clip-rule="evenodd" d="M19.416 18.4395H47.416V16.4395H19.416V18.4395Z" fill="#4D4D4F"/>
<path id="Fill 10 Copy" fill-rule="evenodd" clip-rule="evenodd" d="M19.416 38.4395H47.416V18.4395H19.416V38.4395Z" fill="#6D6E71"/>
<path id="Fill 11 Copy" fill-rule="evenodd" clip-rule="evenodd" d="M21.416 36.4395H45.416V20.4395H21.416V36.4395Z" fill="#44ADE2"/>
<path id="Fill 12 Copy" fill-rule="evenodd" clip-rule="evenodd" d="M32.916 22.4395L28.416 25.0229V29.795C28.416 32.9391 32.916 34.4395 32.916 34.4395C32.916 34.4395 37.416 32.9391 37.416 29.795V25.0229L32.916 22.4395ZM32.916 23.9283L36.1073 25.7607V29.795C36.1073 31.4901 33.869 32.6403 32.916 33.0528C31.9612 32.6397 29.7248 31.4895 29.7248 29.795V25.7607L32.916 23.9283Z" fill="#FFFFFE"/>
<path id="Fill 8" fill-rule="evenodd" clip-rule="evenodd" d="M35.416 48.4395H47.416V47.4395H35.416V48.4395Z" fill="#6D6E71"/>
<path id="Fill 9" fill-rule="evenodd" clip-rule="evenodd" d="M35.416 47.4395H47.416V42.4395H35.416V47.4395Z" fill="#4D4D4F"/>
<path id="Fill 10" fill-rule="evenodd" clip-rule="evenodd" d="M37.416 46.4395H45.416V43.4395H37.416V46.4395Z" fill="#A5CF4C"/>
<path id="Fill 12" fill-rule="evenodd" clip-rule="evenodd" d="M19.416 48.4395H33.416V32.4395H19.416V48.4395Z" fill="#636463"/>
<path id="Fill 13" fill-rule="evenodd" clip-rule="evenodd" d="M19.416 32.4395H33.416V31.4395H19.416V32.4395Z" fill="#414241"/>
<path id="Fill 14" fill-rule="evenodd" clip-rule="evenodd" d="M20.416 47.4395H32.416V33.4395H20.416V47.4395Z" fill="#F04E45"/>
<path id="Fill 15" fill-rule="evenodd" clip-rule="evenodd" d="M26.416 36.4395L23.416 38.1618V41.3434C23.416 43.4389 26.416 44.4395 26.416 44.4395C26.416 44.4395 29.416 43.4389 29.416 41.3434V38.1618L26.416 36.4395ZM26.416 37.415L28.5585 38.6449V41.3434C28.5585 42.4853 27.0504 43.2571 26.416 43.5316C25.7805 43.2565 24.2735 42.4848 24.2735 41.3434V38.6449L26.416 37.415Z" fill="#FFFFFE"/>
</g>
<g id="01 B2C / 01 64 / Antivirus">
<g id="Atom / Product Icon / 01 B2C / Base 64">
<path id="Vector" d="M4.91602 20.5075V44.8575C4.91602 47.2275 6.18602 49.4075 8.23602 50.5875L29.646 62.8175C31.676 63.9775 34.156 63.9775 36.186 62.8175L57.596 50.5875C59.646 49.4175 60.916 47.2275 60.916 44.8575V20.5075C60.916 18.1375 59.646 15.9575 57.596 14.7875L36.186 2.5575C34.156 1.3975 31.676 1.3975 29.646 2.5575L8.23602 14.7875C6.18602 15.9575 4.91602 18.1475 4.91602 20.5075Z" fill="#00A88E"/>
</g>
<g id="Group 58">
<path id="Vector_2" d="M46.916 16.6875H18.916V17.6875H46.916V16.6875Z" fill="#4D4D4F"/>
<path id="Vector_3" d="M37.916 38.6875C37.916 37.5875 35.716 36.6875 32.916 36.6875C30.116 36.6875 27.916 37.5875 27.916 38.6875C27.916 39.7875 30.116 40.6875 32.916 40.6875C35.716 40.6875 37.916 39.7875 37.916 38.6875Z" fill="#4D4D4F"/>
<path id="Vector_4" d="M46.916 17.6875H18.916V38.6875H46.916V17.6875Z" fill="#6D6E71"/>
<path id="Vector_5" d="M44.916 19.6875H20.916V36.6875H44.916V19.6875Z" fill="#00B6B5"/>
<path id="Vector_6" d="M32.916 22.1875L28.416 24.6875V29.6875C28.416 32.7875 32.916 34.2875 32.916 34.2875C32.916 34.2875 37.416 32.7875 37.416 29.6875V24.6875L32.916 22.1875ZM36.416 29.6875C36.416 31.5875 33.816 32.7875 32.916 33.1875C32.016 32.7875 29.416 31.5875 29.416 29.6875V25.2875L32.916 23.2875L36.416 25.2875V29.6875Z" fill="white"/>
<path id="Vector_7" d="M39.916 41.6875H18.916V47.6875H39.916V41.6875Z" fill="#4D4D4F"/>
<path id="Vector_8" d="M39.916 47.6875H18.916V48.6875H39.916V47.6875Z" fill="#6D6E71"/>
<path id="Vector_9" d="M46.916 46.4875C46.916 47.6875 45.816 48.6875 44.416 48.6875C43.016 48.6875 41.916 47.6875 41.916 46.4875V43.8875C41.916 42.6875 43.016 41.6875 44.416 41.6875C45.816 41.6875 46.916 42.6875 46.916 43.8875V46.4875Z" fill="#4D4D4F"/>
<path id="Vector_10" d="M44.416 47.9875C43.016 47.9875 41.916 46.9875 41.916 45.7875V46.4875C41.916 47.6875 43.016 48.6875 44.416 48.6875C45.816 48.6875 46.916 47.6875 46.916 46.4875V45.7875C46.916 46.9875 45.816 47.9875 44.416 47.9875Z" fill="#6D6E71"/>
</g>
</g>
</g>
</svg>
