<svg width="16" height="16" viewBox="0 0 16 16" fill="none" xmlns="http://www.w3.org/2000/svg">
<path d="M6.71934 3.21378C7.10242 1.88952 7.29396 1.22739 7.58922 1.06003C7.84413 0.915537 8.15619 0.915537 8.4111 1.06003C8.70636 1.22739 8.8979 1.88952 9.28098 3.21378L9.78108 4.94256C9.88412 5.29874 9.93564 5.47683 10.0407 5.60721C10.1333 5.72225 10.2549 5.81059 10.393 5.86318C10.5494 5.92278 10.7347 5.91674 11.1053 5.90467L12.904 5.84607C14.2818 5.80118 14.9708 5.77874 15.2212 6.00783C15.4374 6.20561 15.5338 6.5024 15.4751 6.78948C15.4072 7.12201 14.8367 7.50878 13.6956 8.28233L12.206 9.29218C11.8991 9.50024 11.7456 9.60427 11.6541 9.74445C11.5733 9.86814 11.5269 10.0111 11.5195 10.1586C11.5112 10.3258 11.5742 10.5002 11.7002 10.8489L12.3117 12.5415C12.7802 13.838 13.0144 14.4862 12.8739 14.7952C12.7526 15.0619 12.5002 15.2453 12.209 15.2783C11.8718 15.3164 11.3276 14.8933 10.2393 14.0472L8.81858 12.9425C8.52586 12.7149 8.3795 12.6011 8.2179 12.5574C8.07531 12.5188 7.92502 12.5188 7.78242 12.5574C7.62082 12.6011 7.47446 12.7149 7.18174 12.9425L5.761 14.0472C4.6727 14.8933 4.12855 15.3164 3.79131 15.2783C3.50015 15.2453 3.24769 15.0619 3.1264 14.7952C2.9859 14.4862 3.22013 13.838 3.68859 12.5415L4.30015 10.8489C4.42615 10.5002 4.48915 10.3258 4.48082 10.1586C4.47346 10.0111 4.42702 9.86814 4.34625 9.74445C4.25471 9.60427 4.10125 9.50024 3.79434 9.29218L2.30471 8.28233C1.16365 7.50878 0.593116 7.12201 0.525183 6.78948C0.466533 6.5024 0.562966 6.20561 0.779158 6.00783C1.02957 5.77874 1.71848 5.80118 3.0963 5.84607L4.89501 5.90467C5.2656 5.91674 5.4509 5.92278 5.60735 5.86318C5.7454 5.81059 5.86698 5.72225 5.95966 5.60721C6.06468 5.47683 6.1162 5.29874 6.21924 4.94256L6.71934 3.21378Z" fill="#FFE810"/>
</svg>
