<svg width="67" height="67" viewBox="0 0 67 67" fill="none" xmlns="http://www.w3.org/2000/svg">
<rect width="66" height="66" transform="translate(0.5 0.242188)" fill="white"/>
<path d="M43.3718 8.10405C40.3141 6.90236 36.9841 6.24243 33.5 6.24243C18.5883 6.24243 6.5 18.3307 6.5 33.2424C6.5 48.1541 18.5883 60.2424 33.5 60.2424C48.4117 60.2424 60.5 48.1541 60.5 33.2424C60.5 29.9045 59.8943 26.7081 58.7868 23.757L56.4251 26.1187C57.1237 28.3694 57.5 30.762 57.5 33.2424C57.5 46.4973 46.7548 57.2424 33.5 57.2424C20.2452 57.2424 9.5 46.4973 9.5 33.2424C9.5 19.9876 20.2452 9.24243 33.5 9.24243C36.1298 9.24243 38.6609 9.66541 41.0288 10.447L43.3718 8.10405Z" fill="#00A88E"/>
<path d="M37.3528 14.1232C36.1073 13.8736 34.819 13.7427 33.5 13.7427C22.7304 13.7427 14 22.4731 14 33.2427C14 44.0122 22.7304 52.7427 33.5 52.7427C44.2696 52.7427 53 44.0122 53 33.2427C53 32.0819 52.8986 30.9449 52.7041 29.8399L49.9861 32.558C49.9953 32.7851 50 33.0133 50 33.2427C50 42.3554 42.6127 49.7427 33.5 49.7427C24.3873 49.7427 17 42.3554 17 33.2427C17 24.13 24.3873 16.7427 33.5 16.7427C33.9005 16.7427 34.2977 16.7569 34.6911 16.785L37.3528 14.1232Z" fill="#00A88E"/>
<path fill-rule="evenodd" clip-rule="evenodd" d="M50.8127 6.30835L52.3127 12.3086L54.9393 9.68195L57.0607 11.8033L54.4342 14.4297L60.434 15.9297L47.4601 28.9035L41.4603 27.4036L36.3984 32.4655C36.4647 32.7133 36.5 32.9737 36.5 33.2423C36.5 34.8992 35.1569 36.2423 33.5 36.2423C31.8431 36.2423 30.5 34.8992 30.5 33.2423C30.5 31.5855 31.8431 30.2423 33.5 30.2423C33.7688 30.2423 34.0294 30.2777 34.2773 30.344L39.3389 25.2824L37.8388 19.2822L50.8127 6.30835ZM43.9342 24.9297L46.5399 25.5811L48.4345 23.6865L45.8288 23.0351L43.9342 24.9297ZM47.0657 21.7982L49.6714 22.4496L51.5845 20.5365L48.9788 19.8851L47.0657 21.7982ZM50.2157 18.6482L52.8214 19.2996L54.566 17.555L51.9603 16.9036L50.2157 18.6482ZM49.8389 14.7824L49.1873 12.1763L47.4427 13.9209L48.0943 16.527L49.8389 14.7824ZM46.8573 17.764L41.8127 22.8086L41.1612 20.2025L46.2058 15.1579L46.8573 17.764Z" fill="#1D1D1B"/>
<path d="M43.0557 18.3077L43.7072 20.9134L44.75 21.2422L44.9441 19.6765L44.2927 17.0708L42.5 15.9922L43.0557 18.3077Z" fill="#1D1D1B"/>
<path fill-rule="evenodd" clip-rule="evenodd" d="M33.5 21.2422C33.6344 21.2422 33.7684 21.2444 33.9017 21.2488L34.6653 24.3169C34.2838 24.2676 33.8949 24.2422 33.5 24.2422C28.5294 24.2422 24.5 28.2716 24.5 33.2422C24.5 38.2127 28.5294 42.2422 33.5 42.2422C38.4706 42.2422 42.5 38.2127 42.5 33.2422C42.5 32.7964 42.4676 32.3582 42.405 31.9297L45.4883 32.7076C45.4961 32.8848 45.5 33.063 45.5 33.2422C45.5 39.8696 40.1274 45.2422 33.5 45.2422C26.8726 45.2422 21.5 39.8696 21.5 33.2422C21.5 26.6148 26.8726 21.2422 33.5 21.2422Z" fill="#00A88E"/>
</svg>
