<svg width="65" height="65" viewBox="0 0 65 65" fill="none" xmlns="http://www.w3.org/2000/svg">
<g id="Product Icon / 01 B2C / 01 64 / Internet Security for Windows">
<g id="01 B2C / 01 64 / Internet Security for macOS">
<g id="Atom / Product Icon / 01 B2C / Base 64">
<path id="Vector" d="M4.13672 20.5075V44.8575C4.13672 47.2275 5.40672 49.4075 7.45672 50.5875L28.8667 62.8175C30.8967 63.9775 33.3767 63.9775 35.4067 62.8175L56.8167 50.5875C58.8667 49.4175 60.1367 47.2275 60.1367 44.8575V20.5075C60.1367 18.1375 58.8667 15.9575 56.8167 14.7875L35.4067 2.5575C33.3767 1.3975 30.8967 1.3975 28.8667 2.5575L7.45672 14.7875C5.40672 15.9575 4.13672 18.1475 4.13672 20.5075Z" fill="#00A88E"/>
</g>
<g id="Group 84">
<path id="Vector_2" d="M46.1367 17.6875H18.1367V37.6875H46.1367V17.6875Z" fill="#6D6E71"/>
<path id="Vector_3" d="M44.1367 19.6875H20.1367V35.6875H44.1367V19.6875Z" fill="#A7A9AC"/>
<path id="Vector_4" d="M46.1367 16.6875H18.1367V17.6875H46.1367V16.6875Z" fill="#4D4D4F"/>
<path id="Vector_5" d="M46.1367 37.6875H18.1367V47.6875H46.1367V37.6875Z" fill="#BCBEC0"/>
<path id="Vector_6" d="M44.1367 38.6875H20.1367V42.6875H44.1367V38.6875Z" fill="#58595B"/>
<path id="Vector_7" d="M36.1367 43.6875H28.1367V46.6875H36.1367V43.6875Z" fill="#9D9FA2"/>
<path id="Vector_8" d="M46.1367 47.6875H18.1367V48.6875H46.1367V47.6875Z" fill="white"/>
<path id="Vector_9" d="M32.1367 21.6875L27.6367 24.1875V29.1875C27.6367 32.2875 32.1367 33.7875 32.1367 33.7875C32.1367 33.7875 36.6367 32.2875 36.6367 29.1875V24.1875L32.1367 21.6875ZM35.6367 29.1875C35.6367 31.0875 33.0367 32.2875 32.1367 32.6875C31.2367 32.2875 28.6367 31.0875 28.6367 29.1875V24.7875L32.1367 22.7875L35.6367 24.7875V29.1875Z" fill="white"/>
</g>
</g>
</g>
</svg>
