<svg width="61" height="61" viewBox="0 0 61 61" fill="none" xmlns="http://www.w3.org/2000/svg">
<path fill-rule="evenodd" clip-rule="evenodd" d="M30.5 52.7422C42.9264 52.7422 53 42.6686 53 30.2422C53 17.8158 42.9264 7.74219 30.5 7.74219C18.0736 7.74219 8 17.8158 8 30.2422C8 42.6686 18.0736 52.7422 30.5 52.7422ZM30.5 55.7422C44.5833 55.7422 56 44.3255 56 30.2422C56 16.1589 44.5833 4.74219 30.5 4.74219C16.4167 4.74219 5 16.1589 5 30.2422C5 44.3255 16.4167 55.7422 30.5 55.7422Z" fill="#00A88E"/>
<path d="M29 0.242188H32V10.7422H29V0.242188Z" fill="#1D1D1B"/>
<path fill-rule="evenodd" clip-rule="evenodd" d="M29 0.242188V10.7422H32V0.242188H29Z" fill="#00A88E"/>
<path d="M60.5 28.7422L60.5 31.7422L50 31.7422L50 28.7422L60.5 28.7422Z" fill="#1D1D1B"/>
<path fill-rule="evenodd" clip-rule="evenodd" d="M60.5 28.7422L50 28.7422L50 31.7422L60.5 31.7422L60.5 28.7422Z" fill="#00A88E"/>
<path d="M29 49.7422H32V60.2422H29V49.7422Z" fill="#1D1D1B"/>
<path fill-rule="evenodd" clip-rule="evenodd" d="M29 49.7422V60.2422H32V49.7422H29Z" fill="#00A88E"/>
<path d="M11 28.7422L11 31.7422L0.5 31.7422L0.5 28.7422L11 28.7422Z" fill="#1D1D1B"/>
<path fill-rule="evenodd" clip-rule="evenodd" d="M11 28.7422L0.5 28.7422L0.5 31.7422L11 31.7422L11 28.7422Z" fill="#00A88E"/>
</svg>
