<svg width="20" height="21" viewBox="0 0 20 21" fill="none" xmlns="http://www.w3.org/2000/svg">
<path d="M8.71934 5.21378C9.10242 3.88952 9.29396 3.22739 9.58922 3.06003C9.84413 2.91554 10.1562 2.91554 10.4111 3.06003C10.7064 3.22739 10.8979 3.88952 11.281 5.21378L11.7811 6.94256C11.8841 7.29874 11.9356 7.47683 12.0407 7.60721C12.1333 7.72225 12.2549 7.81059 12.393 7.86318C12.5494 7.92278 12.7347 7.91674 13.1053 7.90467L14.904 7.84607C16.2818 7.80118 16.9708 7.77874 17.2212 8.00783C17.4374 8.20561 17.5338 8.5024 17.4751 8.78948C17.4072 9.12201 16.8367 9.50878 15.6956 10.2823L14.206 11.2922C13.8991 11.5002 13.7456 11.6043 13.6541 11.7444C13.5733 11.8681 13.5269 12.0111 13.5195 12.1586C13.5112 12.3258 13.5742 12.5002 13.7002 12.8489L14.3117 14.5415C14.7802 15.838 15.0144 16.4862 14.8739 16.7952C14.7526 17.0619 14.5002 17.2453 14.209 17.2783C13.8718 17.3164 13.3276 16.8933 12.2393 16.0472L10.8186 14.9425C10.5259 14.7149 10.3795 14.6011 10.2179 14.5574C10.0753 14.5188 9.92502 14.5188 9.78242 14.5574C9.62082 14.6011 9.47446 14.7149 9.18174 14.9425L7.761 16.0472C6.6727 16.8933 6.12855 17.3164 5.79131 17.2783C5.50015 17.2453 5.24769 17.0619 5.1264 16.7952C4.9859 16.4862 5.22013 15.838 5.68859 14.5415L6.30015 12.8489C6.42615 12.5002 6.48915 12.3258 6.48082 12.1586C6.47346 12.0111 6.42702 11.8681 6.34625 11.7444C6.25471 11.6043 6.10125 11.5002 5.79434 11.2922L4.30471 10.2823C3.16365 9.50878 2.59312 9.12201 2.52518 8.78948C2.46653 8.5024 2.56297 8.20561 2.77916 8.00783C3.02957 7.77874 3.71848 7.80118 5.0963 7.84607L6.89501 7.90467C7.2656 7.91674 7.4509 7.92278 7.60735 7.86318C7.7454 7.81059 7.86698 7.72225 7.95966 7.60721C8.06468 7.47683 8.1162 7.29874 8.21924 6.94256L8.71934 5.21378Z" fill="url(#paint0_linear)"/>
<defs>
<linearGradient id="paint0_linear" x1="17.5002" y1="10.7861" x2="1.66683" y2="10.7861" gradientUnits="userSpaceOnUse">
<stop offset="0.458564" stop-color="#CCCCCC"/>
<stop offset="0.458664" stop-color="#FFEB2D"/>
</linearGradient>
</defs>
</svg>
