<svg width="100" height="21" viewBox="0 0 100 21" fill="none" xmlns="http://www.w3.org/2000/svg">
<path d="M8.71934 5.21378C9.10242 3.88952 9.29396 3.22739 9.58922 3.06003C9.84413 2.91554 10.1562 2.91554 10.4111 3.06003C10.7064 3.22739 10.8979 3.88952 11.281 5.21378L11.7811 6.94256C11.8841 7.29874 11.9356 7.47683 12.0407 7.60721C12.1333 7.72225 12.2549 7.81059 12.393 7.86318C12.5494 7.92278 12.7347 7.91674 13.1053 7.90467L14.904 7.84607C16.2818 7.80118 16.9708 7.77874 17.2212 8.00783C17.4374 8.20561 17.5338 8.5024 17.4751 8.78948C17.4072 9.12201 16.8367 9.50878 15.6956 10.2823L14.206 11.2922C13.8991 11.5002 13.7456 11.6043 13.6541 11.7444C13.5733 11.8681 13.5269 12.0111 13.5195 12.1586C13.5112 12.3258 13.5742 12.5002 13.7002 12.8489L14.3117 14.5415C14.7802 15.838 15.0144 16.4862 14.8739 16.7952C14.7526 17.0619 14.5002 17.2453 14.209 17.2783C13.8718 17.3164 13.3276 16.8933 12.2393 16.0472L10.8186 14.9425C10.5259 14.7149 10.3795 14.6011 10.2179 14.5574C10.0753 14.5188 9.92502 14.5188 9.78242 14.5574C9.62082 14.6011 9.47446 14.7149 9.18174 14.9425L7.761 16.0472C6.6727 16.8933 6.12855 17.3164 5.79131 17.2783C5.50015 17.2453 5.24769 17.0619 5.1264 16.7952C4.9859 16.4862 5.22013 15.838 5.68859 14.5415L6.30015 12.8489C6.42615 12.5002 6.48915 12.3258 6.48082 12.1586C6.47346 12.0111 6.42702 11.8681 6.34625 11.7444C6.25471 11.6043 6.10125 11.5002 5.79434 11.2922L4.30471 10.2823C3.16365 9.50878 2.59312 9.12201 2.52518 8.78948C2.46653 8.5024 2.56297 8.20561 2.77916 8.00783C3.02957 7.77874 3.71848 7.80118 5.0963 7.84607L6.89501 7.90467C7.2656 7.91674 7.4509 7.92278 7.60735 7.86318C7.7454 7.81059 7.86698 7.72225 7.95966 7.60721C8.06468 7.47683 8.1162 7.29874 8.21924 6.94256L8.71934 5.21378Z" fill="#FFE810"/>
<path d="M28.7193 5.21378C29.1024 3.88952 29.294 3.22739 29.5892 3.06003C29.8441 2.91554 30.1562 2.91554 30.4111 3.06003C30.7064 3.22739 30.8979 3.88952 31.281 5.21378L31.7811 6.94256C31.8841 7.29874 31.9356 7.47683 32.0407 7.60721C32.1333 7.72225 32.2549 7.81059 32.393 7.86318C32.5494 7.92278 32.7347 7.91674 33.1053 7.90467L34.904 7.84607C36.2818 7.80118 36.9708 7.77874 37.2212 8.00783C37.4374 8.20561 37.5338 8.5024 37.4751 8.78948C37.4072 9.12201 36.8367 9.50878 35.6956 10.2823L34.206 11.2922C33.8991 11.5002 33.7456 11.6043 33.6541 11.7444C33.5733 11.8681 33.5269 12.0111 33.5195 12.1586C33.5112 12.3258 33.5742 12.5002 33.7002 12.8489L34.3117 14.5415C34.7802 15.838 35.0144 16.4862 34.8739 16.7952C34.7526 17.0619 34.5002 17.2453 34.209 17.2783C33.8718 17.3164 33.3276 16.8933 32.2393 16.0472L30.8186 14.9425C30.5259 14.7149 30.3795 14.6011 30.2179 14.5574C30.0753 14.5188 29.925 14.5188 29.7824 14.5574C29.6208 14.6011 29.4745 14.7149 29.1817 14.9425L27.761 16.0472C26.6727 16.8933 26.1286 17.3164 25.7913 17.2783C25.5002 17.2453 25.2477 17.0619 25.1264 16.7952C24.9859 16.4862 25.2201 15.838 25.6886 14.5415L26.3002 12.8489C26.4262 12.5002 26.4892 12.3258 26.4808 12.1586C26.4735 12.0111 26.427 11.8681 26.3462 11.7444C26.2547 11.6043 26.1012 11.5002 25.7943 11.2922L24.3047 10.2823C23.1636 9.50878 22.5931 9.12201 22.5252 8.78948C22.4665 8.5024 22.563 8.20561 22.7792 8.00783C23.0296 7.77874 23.7185 7.80118 25.0963 7.84607L26.895 7.90467C27.2656 7.91674 27.4509 7.92278 27.6073 7.86318C27.7454 7.81059 27.867 7.72225 27.9597 7.60721C28.0647 7.47683 28.1162 7.29874 28.2192 6.94256L28.7193 5.21378Z" fill="#FFE810"/>
<path d="M48.7193 5.21378C49.1024 3.88952 49.294 3.22739 49.5892 3.06003C49.8441 2.91554 50.1562 2.91554 50.4111 3.06003C50.7064 3.22739 50.8979 3.88952 51.281 5.21378L51.7811 6.94256C51.8841 7.29874 51.9356 7.47683 52.0407 7.60721C52.1333 7.72225 52.2549 7.81059 52.393 7.86318C52.5494 7.92278 52.7347 7.91674 53.1053 7.90467L54.904 7.84607C56.2818 7.80118 56.9708 7.77874 57.2212 8.00783C57.4374 8.20561 57.5338 8.5024 57.4751 8.78948C57.4072 9.12201 56.8367 9.50878 55.6956 10.2823L54.206 11.2922C53.8991 11.5002 53.7456 11.6043 53.6541 11.7444C53.5733 11.8681 53.5269 12.0111 53.5195 12.1586C53.5112 12.3258 53.5742 12.5002 53.7002 12.8489L54.3117 14.5415C54.7802 15.838 55.0144 16.4862 54.8739 16.7952C54.7526 17.0619 54.5002 17.2453 54.209 17.2783C53.8718 17.3164 53.3276 16.8933 52.2393 16.0472L50.8186 14.9425C50.5259 14.7149 50.3795 14.6011 50.2179 14.5574C50.0753 14.5188 49.925 14.5188 49.7824 14.5574C49.6208 14.6011 49.4745 14.7149 49.1817 14.9425L47.761 16.0472C46.6727 16.8933 46.1286 17.3164 45.7913 17.2783C45.5002 17.2453 45.2477 17.0619 45.1264 16.7952C44.9859 16.4862 45.2201 15.838 45.6886 14.5415L46.3002 12.8489C46.4262 12.5002 46.4892 12.3258 46.4808 12.1586C46.4735 12.0111 46.427 11.8681 46.3462 11.7444C46.2547 11.6043 46.1012 11.5002 45.7943 11.2922L44.3047 10.2823C43.1636 9.50878 42.5931 9.12201 42.5252 8.78948C42.4665 8.5024 42.563 8.20561 42.7792 8.00783C43.0296 7.77874 43.7185 7.80118 45.0963 7.84607L46.895 7.90467C47.2656 7.91674 47.4509 7.92278 47.6073 7.86318C47.7454 7.81059 47.867 7.72225 47.9597 7.60721C48.0647 7.47683 48.1162 7.29874 48.2192 6.94256L48.7193 5.21378Z" fill="#FFE810"/>
<path d="M68.7193 5.21378C69.1024 3.88952 69.294 3.22739 69.5892 3.06003C69.8441 2.91554 70.1562 2.91554 70.4111 3.06003C70.7064 3.22739 70.8979 3.88952 71.281 5.21378L71.7811 6.94256C71.8841 7.29874 71.9356 7.47683 72.0407 7.60721C72.1333 7.72225 72.2549 7.81059 72.393 7.86318C72.5494 7.92278 72.7347 7.91674 73.1053 7.90467L74.904 7.84607C76.2818 7.80118 76.9708 7.77874 77.2212 8.00783C77.4374 8.20561 77.5338 8.5024 77.4751 8.78948C77.4072 9.12201 76.8367 9.50878 75.6956 10.2823L74.206 11.2922C73.8991 11.5002 73.7456 11.6043 73.6541 11.7444C73.5733 11.8681 73.5269 12.0111 73.5195 12.1586C73.5112 12.3258 73.5742 12.5002 73.7002 12.8489L74.3117 14.5415C74.7802 15.838 75.0144 16.4862 74.8739 16.7952C74.7526 17.0619 74.5002 17.2453 74.209 17.2783C73.8718 17.3164 73.3276 16.8933 72.2393 16.0472L70.8186 14.9425C70.5259 14.7149 70.3795 14.6011 70.2179 14.5574C70.0753 14.5188 69.925 14.5188 69.7824 14.5574C69.6208 14.6011 69.4745 14.7149 69.1817 14.9425L67.761 16.0472C66.6727 16.8933 66.1286 17.3164 65.7913 17.2783C65.5002 17.2453 65.2477 17.0619 65.1264 16.7952C64.9859 16.4862 65.2201 15.838 65.6886 14.5415L66.3002 12.8489C66.4262 12.5002 66.4892 12.3258 66.4808 12.1586C66.4735 12.0111 66.427 11.8681 66.3462 11.7444C66.2547 11.6043 66.1012 11.5002 65.7943 11.2922L64.3047 10.2823C63.1636 9.50878 62.5931 9.12201 62.5252 8.78948C62.4665 8.5024 62.563 8.20561 62.7792 8.00783C63.0296 7.77874 63.7185 7.80118 65.0963 7.84607L66.895 7.90467C67.2656 7.91674 67.4509 7.92278 67.6073 7.86318C67.7454 7.81059 67.867 7.72225 67.9597 7.60721C68.0647 7.47683 68.1162 7.29874 68.2192 6.94256L68.7193 5.21378Z" fill="#FFE810"/>
<path d="M88.7193 5.21378C89.1024 3.88952 89.294 3.22739 89.5892 3.06003C89.8441 2.91554 90.1562 2.91554 90.4111 3.06003C90.7064 3.22739 90.8979 3.88952 91.281 5.21378L91.7811 6.94256C91.8841 7.29874 91.9356 7.47683 92.0407 7.60721C92.1333 7.72225 92.2549 7.81059 92.393 7.86318C92.5494 7.92278 92.7347 7.91674 93.1053 7.90467L94.904 7.84607C96.2818 7.80118 96.9708 7.77874 97.2212 8.00783C97.4374 8.20561 97.5338 8.5024 97.4751 8.78948C97.4072 9.12201 96.8367 9.50878 95.6956 10.2823L94.206 11.2922C93.8991 11.5002 93.7456 11.6043 93.6541 11.7444C93.5733 11.8681 93.5269 12.0111 93.5195 12.1586C93.5112 12.3258 93.5742 12.5002 93.7002 12.8489L94.3117 14.5415C94.7802 15.838 95.0144 16.4862 94.8739 16.7952C94.7526 17.0619 94.5002 17.2453 94.209 17.2783C93.8718 17.3164 93.3276 16.8933 92.2393 16.0472L90.8186 14.9425C90.5259 14.7149 90.3795 14.6011 90.2179 14.5574C90.0753 14.5188 89.925 14.5188 89.7824 14.5574C89.6208 14.6011 89.4745 14.7149 89.1817 14.9425L87.761 16.0472C86.6727 16.8933 86.1286 17.3164 85.7913 17.2783C85.5002 17.2453 85.2477 17.0619 85.1264 16.7952C84.9859 16.4862 85.2201 15.838 85.6886 14.5415L86.3002 12.8489C86.4262 12.5002 86.4892 12.3258 86.4808 12.1586C86.4735 12.0111 86.427 11.8681 86.3462 11.7444C86.2547 11.6043 86.1012 11.5002 85.7943 11.2922L84.3047 10.2823C83.1636 9.50878 82.5931 9.12201 82.5252 8.78948C82.4665 8.5024 82.563 8.20561 82.7792 8.00783C83.0296 7.77874 83.7185 7.80118 85.0963 7.84607L86.895 7.90467C87.2656 7.91674 87.4509 7.92278 87.6073 7.86318C87.7454 7.81059 87.867 7.72225 87.9597 7.60721C88.0647 7.47683 88.1162 7.29874 88.2192 6.94256L88.7193 5.21378Z" fill="url(#paint0_linear)"/>
<defs>
<linearGradient id="paint0_linear" x1="97.5002" y1="10.7861" x2="81.6668" y2="10.7861" gradientUnits="userSpaceOnUse">
<stop offset="0.458564" stop-color="#CCCCCC"/>
<stop offset="0.458664" stop-color="#FFEB2D"/>
</linearGradient>
</defs>
</svg>
